<svg xmlns:svg="http://www.w3.org/2000/svg" xmlns="http://www.w3.org/2000/svg" height="1200" width="1200"><circle cy="50%" cx="50%" r="48%" fill="#f38f19"/><svg viewBox="0 0 32 32" transform="rotate(150 482.08 531.92) scale(.69)"><circle r="2" cy="16" cx="16"/><path d="M16 27C9.935 27 5 22.065 5 16S9.935 5 16 5c2.938 0 5.701 1.144 7.778 3.222a.999.999 0 11-1.414 1.414A8.94 8.94 0 0016 7c-4.962 0-9 4.038-9 9 0 4.963 4.038 9 9 9a8.979 8.979 0 003.268-.611 1 1 0 01.727 1.863A10.967 10.967 0 0116 27zm6.972-2.83a1 1 0 01-.697-1.718l.079-.078a1 1 0 111.434 1.394l-.12.119a.994.994 0 01-.696.283zM16 22c-3.309 0-6-2.691-6-6s2.691-6 6-6c1.604 0 3.109.624 4.242 1.757a1 1 0 11-1.414 1.415A3.971 3.971 0 0016 12c-2.206 0-4 1.794-4 4s1.794 4 4 4a3.971 3.971 0 002.828-1.172.999.999 0 111.414 1.414A5.952 5.952 0 0116 22zm0-5a.997.997 0 01-.707-.293.997.997 0 010-1.414L30.276.431a1 1 0 011.414 1.414L16.707 16.707A1.002 1.002 0 0116 17z"/></svg></svg>